<?plantuml 1.2026.2?><svg xmlns="http://www.w3.org/2000/svg" xmlns:xlink="http://www.w3.org/1999/xlink" contentStyleType="text/css" data-diagram-type="SEQUENCE" height="862.4px" preserveAspectRatio="none" style="width:848px;height:862px;background:#FFFFFF;" version="1.1" viewBox="0 0 848 862" width="848.4px" zoomAndPan="magnify"><title>&#26032;&#22686;&#29992;&#25143;&#26102;&#24207;&#22270;</title><defs/><g><text fill="#000000" font-family="sans-serif" font-size="19.6" font-weight="bold" lengthAdjust="spacing" textLength="141.4875" x="352.3522" y="40.7053">&#26032;&#22686;&#29992;&#25143;&#26102;&#24207;&#22270;</text><g><title>UserController</title><rect fill="#FFFFFF" height="509.9678" style="stroke:#181818;stroke-width:1.4;" width="14" x="274.5094" y="213.1206"/></g><g><title>SysUserService</title><rect fill="#FFFFFF" height="185.7871" style="stroke:#181818;stroke-width:1.4;" width="14" x="579.9753" y="495.4045"/></g><g><title>SysUserMapper</title><rect fill="#FFFFFF" height="41.8968" style="stroke:#181818;stroke-width:1.4;" width="14" x="753.5363" y="597.398"/></g><g class="participant-lifeline" data-entity-uid="part1" data-qualified-name="Browser" id="part1-lifeline"><g><title>...</title><rect fill="#000000" fill-opacity="0.00000" height="579.8646" width="11.2" x="35" y="168.4238"/><line style="stroke:#181818;stroke-width:0.7;stroke-dasharray:7,7;" x1="40.6" x2="40.6" y1="168.4238" y2="748.2884"/></g></g><g class="participant-lifeline" data-entity-uid="part2" data-qualified-name="UserController" id="part2-lifeline"><g><title>UserController</title><rect fill="#000000" fill-opacity="0.00000" height="579.8646" width="11.2" x="275.9094" y="168.4238"/><line style="stroke:#181818;stroke-width:0.7;stroke-dasharray:7,7;" x1="281.3357" x2="281.3357" y1="168.4238" y2="748.2884"/></g></g><g class="participant-lifeline" data-entity-uid="part3" data-qualified-name="SysUserService" id="part3-lifeline"><g><title>SysUserService</title><rect fill="#000000" fill-opacity="0.00000" height="579.8646" width="11.2" x="581.3753" y="168.4238"/><line style="stroke:#181818;stroke-width:0.7;stroke-dasharray:7,7;" x1="585.8699" x2="585.8699" y1="168.4238" y2="748.2884"/></g></g><g class="participant-lifeline" data-entity-uid="part4" data-qualified-name="SysUserMapper" id="part4-lifeline"><g><title>SysUserMapper</title><rect fill="#000000" fill-opacity="0.00000" height="579.8646" width="11.2" x="754.9363" y="168.4238"/><line style="stroke:#181818;stroke-width:0.7;stroke-dasharray:7,7;" x1="760.2807" x2="760.2807" y1="168.4238" y2="748.2884"/></g></g><g class="participant participant-head" data-entity-uid="part1" data-qualified-name="Browser" id="part1-head"><text fill="#000000" font-family="sans-serif" font-size="19.6" lengthAdjust="spacing" textLength="58.8" x="7" y="164.1172">&#27983;&#35272;&#22120;</text><ellipse cx="40.6" cy="72.3119" fill="#E2E2F0" rx="11.2" ry="11.2" style="stroke:#181818;stroke-width:0.7;"/><path d="M40.6,83.5119 L40.6,121.3119 M22.4,94.7119 L58.8,94.7119 M40.6,121.3119 L22.4,142.3119 M40.6,121.3119 L58.8,142.3119" fill="none" style="stroke:#181818;stroke-width:0.7;"/></g><g class="participant participant-tail" data-entity-uid="part1" data-qualified-name="Browser" id="part1-tail"><text fill="#000000" font-family="sans-serif" font-size="19.6" lengthAdjust="spacing" textLength="58.8" x="7" y="766.5937">&#27983;&#35272;&#22120;</text><ellipse cx="40.6" cy="782.8003" fill="#E2E2F0" rx="11.2" ry="11.2" style="stroke:#181818;stroke-width:0.7;"/><path d="M40.6,794.0003 L40.6,831.8003 M22.4,805.2003 L58.8,805.2003 M40.6,831.8003 L22.4,852.8003 M40.6,831.8003 L58.8,852.8003" fill="none" style="stroke:#181818;stroke-width:0.7;"/></g><g class="participant participant-head" data-entity-uid="part2" data-qualified-name="UserController" id="part2-head"><rect fill="#E2E2F0" height="43.6119" rx="3.5" ry="3.5" style="stroke:#181818;stroke-width:0.7;" width="145.9473" x="208.5357" y="123.4119"/><text fill="#000000" font-family="sans-serif" font-size="19.6" lengthAdjust="spacing" textLength="126.3473" x="218.3357" y="152.9172">UserController</text></g><g class="participant participant-tail" data-entity-uid="part2" data-qualified-name="UserController" id="part2-tail"><rect fill="#E2E2F0" height="43.6119" rx="3.5" ry="3.5" style="stroke:#181818;stroke-width:0.7;" width="145.9473" x="208.5357" y="746.8884"/><text fill="#000000" font-family="sans-serif" font-size="19.6" lengthAdjust="spacing" textLength="126.3473" x="218.3357" y="776.3937">UserController</text></g><g class="participant participant-head" data-entity-uid="part3" data-qualified-name="SysUserService" id="part3-head"><rect fill="#E2E2F0" height="43.6119" rx="3.5" ry="3.5" style="stroke:#181818;stroke-width:0.7;" width="159.0107" x="507.4699" y="123.4119"/><text fill="#000000" font-family="sans-serif" font-size="19.6" lengthAdjust="spacing" textLength="139.4107" x="517.2699" y="152.9172">SysUserService</text></g><g class="participant participant-tail" data-entity-uid="part3" data-qualified-name="SysUserService" id="part3-tail"><rect fill="#E2E2F0" height="43.6119" rx="3.5" ry="3.5" style="stroke:#181818;stroke-width:0.7;" width="159.0107" x="507.4699" y="746.8884"/><text fill="#000000" font-family="sans-serif" font-size="19.6" lengthAdjust="spacing" textLength="139.4107" x="517.2699" y="776.3937">SysUserService</text></g><g class="participant participant-head" data-entity-uid="part4" data-qualified-name="SysUserMapper" id="part4-head"><rect fill="#E2E2F0" height="43.6119" rx="3.5" ry="3.5" style="stroke:#181818;stroke-width:0.7;" width="160.1113" x="680.4807" y="123.4119"/><text fill="#000000" font-family="sans-serif" font-size="19.6" lengthAdjust="spacing" textLength="140.5113" x="690.2807" y="152.9172">SysUserMapper</text></g><g class="participant participant-tail" data-entity-uid="part4" data-qualified-name="SysUserMapper" id="part4-tail"><rect fill="#E2E2F0" height="43.6119" rx="3.5" ry="3.5" style="stroke:#181818;stroke-width:0.7;" width="160.1113" x="680.4807" y="746.8884"/><text fill="#000000" font-family="sans-serif" font-size="19.6" lengthAdjust="spacing" textLength="140.5113" x="690.2807" y="776.3937">SysUserMapper</text></g><g><title>UserController</title><rect fill="#FFFFFF" height="509.9678" style="stroke:#181818;stroke-width:1.4;" width="14" x="274.5094" y="213.1206"/></g><g><title>SysUserService</title><rect fill="#FFFFFF" height="185.7871" style="stroke:#181818;stroke-width:1.4;" width="14" x="579.9753" y="495.4045"/></g><g><title>SysUserMapper</title><rect fill="#FFFFFF" height="41.8968" style="stroke:#181818;stroke-width:1.4;" width="14" x="753.5363" y="597.398"/></g><g class="message" data-entity-1="part1" data-entity-2="part2" id="msg1"><polygon fill="#181818" points="257.7094,207.5206,271.7094,213.1206,257.7094,218.7206,263.3094,213.1206" style="stroke:#181818;stroke-width:1.4;"/><line style="stroke:#181818;stroke-width:1.4;" x1="40.6" x2="266.1094" y1="213.1206" y2="213.1206"/><text fill="#000000" font-family="sans-serif" font-size="18.2" lengthAdjust="spacing" textLength="207.3094" x="50.4" y="206.3216">1&#65306;&#21457;&#36865;ajax&#35831;&#27714;&#25552;&#20132;&#25968;&#25454;</text></g><g class="message" data-entity-1="part2" data-entity-2="part2" id="msg2"><line style="stroke:#181818;stroke-width:1.4;" x1="288.5094" x2="347.3094" y1="255.0174" y2="255.0174"/><line style="stroke:#181818;stroke-width:1.4;" x1="347.3094" x2="347.3094" y1="255.0174" y2="273.2174"/><line style="stroke:#181818;stroke-width:1.4;" x1="289.9094" x2="347.3094" y1="273.2174" y2="273.2174"/><polygon fill="#181818" points="303.9094,267.6174,289.9094,273.2174,303.9094,278.8174,298.3094,273.2174" style="stroke:#181818;stroke-width:1.4;"/><text fill="#000000" font-family="sans-serif" font-size="18.2" lengthAdjust="spacing" textLength="101.122" x="298.3094" y="248.2184">2&#65306;&#26435;&#38480;&#26816;&#26597;</text></g><g class="message" data-entity-1="part2" data-entity-2="part2" id="msg3"><line style="stroke:#181818;stroke-width:1.4;" x1="288.5094" x2="347.3094" y1="315.1142" y2="315.1142"/><line style="stroke:#181818;stroke-width:1.4;" x1="347.3094" x2="347.3094" y1="315.1142" y2="333.3142"/><line style="stroke:#181818;stroke-width:1.4;" x1="289.9094" x2="347.3094" y1="333.3142" y2="333.3142"/><polygon fill="#181818" points="303.9094,327.7142,289.9094,333.3142,303.9094,338.9142,298.3094,333.3142" style="stroke:#181818;stroke-width:1.4;"/><text fill="#000000" font-family="sans-serif" font-size="18.2" lengthAdjust="spacing" textLength="137.522" x="298.3094" y="308.3151">3&#65306;&#23553;&#35013;form&#25968;&#25454;</text></g><g class="message" data-entity-1="part2" data-entity-2="part2" id="msg4"><line style="stroke:#181818;stroke-width:1.4;" x1="288.5094" x2="347.3094" y1="375.2109" y2="375.2109"/><line style="stroke:#181818;stroke-width:1.4;" x1="347.3094" x2="347.3094" y1="375.2109" y2="393.4109"/><line style="stroke:#181818;stroke-width:1.4;" x1="289.9094" x2="347.3094" y1="393.4109" y2="393.4109"/><polygon fill="#181818" points="303.9094,387.8109,289.9094,393.4109,303.9094,399.0109,298.3094,393.4109" style="stroke:#181818;stroke-width:1.4;"/><text fill="#000000" font-family="sans-serif" font-size="18.2" lengthAdjust="spacing" textLength="137.522" x="298.3094" y="368.4119">4&#65306;&#26657;&#39564;form&#25968;&#25454;</text></g><g class="message" data-entity-1="part2" data-entity-2="part2" id="msg5"><line style="stroke:#181818;stroke-width:1.4;" x1="288.5094" x2="347.3094" y1="435.3077" y2="435.3077"/><line style="stroke:#181818;stroke-width:1.4;" x1="347.3094" x2="347.3094" y1="435.3077" y2="453.5077"/><line style="stroke:#181818;stroke-width:1.4;" x1="289.9094" x2="347.3094" y1="453.5077" y2="453.5077"/><polygon fill="#181818" points="303.9094,447.9077,289.9094,453.5077,303.9094,459.1077,298.3094,453.5077" style="stroke:#181818;stroke-width:1.4;"/><text fill="#000000" font-family="sans-serif" font-size="18.2" lengthAdjust="spacing" textLength="257.8659" x="298.3094" y="428.5087">5&#65306;&#23558;form&#25968;&#25454;&#36716;&#25442;&#25104;UserEntity</text></g><g class="message" data-entity-1="part2" data-entity-2="part3" id="msg6"><polygon fill="#181818" points="563.1753,489.8045,577.1753,495.4045,563.1753,501.0045,568.7753,495.4045" style="stroke:#181818;stroke-width:1.4;"/><line style="stroke:#181818;stroke-width:1.4;" x1="288.5094" x2="571.5753" y1="495.4045" y2="495.4045"/><text fill="#000000" font-family="sans-serif" font-size="18.2" lengthAdjust="spacing" textLength="66.7659" x="298.3094" y="488.6055">6&#65306;save</text></g><g class="message" data-entity-1="part3" data-entity-2="part3" id="msg7"><line style="stroke:#181818;stroke-width:1.4;" x1="593.9753" x2="652.7753" y1="537.3013" y2="537.3013"/><line style="stroke:#181818;stroke-width:1.4;" x1="652.7753" x2="652.7753" y1="537.3013" y2="555.5013"/><line style="stroke:#181818;stroke-width:1.4;" x1="595.3753" x2="652.7753" y1="555.5013" y2="555.5013"/><polygon fill="#181818" points="609.3753,549.9013,595.3753,555.5013,609.3753,561.1013,603.7753,555.5013" style="stroke:#181818;stroke-width:1.4;"/><text fill="#000000" font-family="sans-serif" font-size="18.2" lengthAdjust="spacing" textLength="101.122" x="603.7753" y="530.5022">7&#65306;&#23494;&#30721;&#28151;&#28102;</text></g><g class="message" data-entity-1="part3" data-entity-2="part4" id="msg8"><polygon fill="#181818" points="736.7363,591.798,750.7363,597.398,736.7363,602.998,742.3363,597.398" style="stroke:#181818;stroke-width:1.4;"/><line style="stroke:#181818;stroke-width:1.4;" x1="593.9753" x2="745.1363" y1="597.398" y2="597.398"/><text fill="#000000" font-family="sans-serif" font-size="18.2" lengthAdjust="spacing" textLength="72.8267" x="603.7753" y="590.599">8&#65306;insert</text></g><g class="message" data-entity-1="part4" data-entity-2="part3" id="msg9"><polygon fill="#181818" points="609.3753,633.6948,595.3753,639.2948,609.3753,644.8948,603.7753,639.2948" style="stroke:#181818;stroke-width:1.4;"/><line style="stroke:#181818;stroke-width:1.4;stroke-dasharray:2.8,2.8;" x1="600.9753" x2="759.1363" y1="639.2948" y2="639.2948"/><text fill="#000000" font-family="sans-serif" font-size="18.2" lengthAdjust="spacing" textLength="47.5439" x="617.7753" y="632.4958">9&#65306;int</text></g><g class="message" data-entity-1="part3" data-entity-2="part2" id="msg10"><polygon fill="#181818" points="303.9094,675.5916,289.9094,681.1916,303.9094,686.7916,298.3094,681.1916" style="stroke:#181818;stroke-width:1.4;"/><line style="stroke:#181818;stroke-width:1.4;stroke-dasharray:2.8,2.8;" x1="295.5094" x2="585.5753" y1="681.1916" y2="681.1916"/><text fill="#000000" font-family="sans-serif" font-size="18.2" lengthAdjust="spacing" textLength="57.6659" x="312.3094" y="674.3926">10&#65306;int</text></g><g class="message" data-entity-1="part2" data-entity-2="part1" id="msg11"><polygon fill="#181818" points="56,717.4884,42,723.0884,56,728.6884,50.4,723.0884" style="stroke:#181818;stroke-width:1.4;"/><line style="stroke:#181818;stroke-width:1.4;stroke-dasharray:2.8,2.8;" x1="47.6" x2="280.1094" y1="723.0884" y2="723.0884"/><text fill="#000000" font-family="sans-serif" font-size="18.2" lengthAdjust="spacing" textLength="51.5874" x="64.4" y="716.2894">11&#65306;R</text></g><?plantuml-src bLBBJi905DttAoPkM26-7onSQ5owqVW1apfgJMbhEw3kg0PIerXCV0IDBz18Z05SG9MeNqClPUKlE5L4gLLqUU-TyvXxJs2HKaKBXqAAY2KQZOZTl1m9QMGvIYIU1ES4lA3Y24S5AX841oKxUrhVouDXmM75hfhsyJCNG7RXgFQmQPlhjViT9vxWC4zb5NL1sNIk3JkJxq9OG-EglA8HbLEmIWLUK9WSccMD2LcYgYoAdj7CckPEPuWQ4tZYDvh2Yi90J1yg1kX5AElr_1RNr471CGzz6FM-F1xPvcuZhkCblEeKBRXR1pDTgrx2VWbI1TUu4CEKU8rnxRKVTn_ZXfEDHYODkJYSNVq1qk_QAUbEBZ4lgv6cXSwm0LVf_A9ni_qlsE2RMl8JuppTGYeBHjfzEIcn4w_vVRJz464qn7Wq72EVo_ASYckl_JY6NI_5PFrS1yi2A_aBvltAOJJ288B46lIRy4SGsaeKzD4TVIEXt1pfmD7ouPUYdXzPMYlmhf7HD7F9y6uCfx-YFMbx1G00?></g></svg>